<?xml version="1.0" encoding="utf-8"?>
<!-- Generator: Adobe Illustrator 28.0.0, SVG Export Plug-In . SVG Version: 6.00 Build 0)  -->
<svg version="1.1" id="Layer_1" xmlns="http://www.w3.org/2000/svg" xmlns:xlink="http://www.w3.org/1999/xlink" x="0px" y="0px"
	 viewBox="0 0 600 600" style="enable-background:new 0 0 600 600;" xml:space="preserve">
<style type="text/css">
	.st0{fill:#78BE20;}
	.st1{fill:none;stroke:#78BE20;stroke-width:12.1429;stroke-miterlimit:10;}
	.st2{fill:none;stroke:#78BE20;stroke-width:24.2859;stroke-miterlimit:10;}
	.st3{fill:#FFFFFF;}
	.st4{fill:#78BE20;stroke:#FFFFFF;stroke-width:11.7476;stroke-miterlimit:10;}
</style>
<g>
	<g>
		<path class="st0" d="M300,3.08L42.86,151.54v296.92L300,596.92l257.14-148.46V151.54L300,3.08z M300,31.13l227.57,131.38
			l-60.9,36.13L300,102.41l-164.48,94.97l-60.9-36.13L300,31.13z M430.94,308.68v68.91l-59.69,34.46l-59.68-34.46v-68.91
			l59.68-34.46L430.94,308.68z M228.74,274.22l59.69,34.46v68.91l-59.69,34.46l-59.68-34.46v-68.91L228.74,274.22z M293.8,565.3
			L67.15,434.44v-263.5l61.73,36.62V398.8L294,494.13L293.8,565.3z M240.31,254.03v-68.91L300,150.66l59.68,34.46v68.91L300,288.49
			L240.31,254.03z M532.85,434.44L305.94,565.45l0.21-71.41l164.97-95.24V210.12l61.73-36.62V434.44z"/>
	</g>
	<g>
		<g>
			<g>
				<polygon class="st0" points="347.94,199.73 347.94,247.25 300,274.93 252.06,247.25 252.06,200.18 300.37,228.47 				"/>
				<polygon class="st0" points="342.95,189.02 300.28,214.8 256.64,189.25 300,164.22 				"/>
			</g>
		</g>
	</g>
	<g>
		<g>
			<g>
				<g>
					<polygon class="st0" points="271.69,312.58 229.02,338.36 185.39,312.81 228.74,287.78 					"/>
					<polygon class="st0" points="276.68,323.3 276.68,370.81 228.74,398.49 180.81,370.81 180.81,323.75 229.12,352.03 					"/>
				</g>
			</g>
		</g>
		<g>
			<g>
				<g>
					<polygon class="st0" points="419.19,323.3 419.19,370.81 371.25,398.49 323.32,370.81 323.32,323.75 371.63,352.03 					"/>
					<polygon class="st0" points="414.2,312.58 371.53,338.36 327.9,312.81 371.25,287.78 					"/>
				</g>
			</g>
		</g>
	</g>
</g>
</svg>
